Urbanist-Black.ufo
<glyph name="dollar" format="2">
  <advance width="1224"/>
  <unicode hex="0024"/>
  <outline>
    <contour>
      <point x="612" y="1124" type="curve"/>
      <point x="742" y="1124"/>
      <point x="842" y="1066"/>
      <point x="862" y="1008" type="curve"/>
      <point x="1144" y="1110" type="line"/>
      <point x="1084" y="1280"/>
      <point x="908" y="1392"/>
      <point x="712" y="1420" type="curve"/>
      <point x="712" y="1624" type="line"/>
      <point x="512" y="1624" type="line"/>
      <point x="512" y="1420" type="line"/>
      <point x="272" y="1384"/>
      <point x="80" y="1220"/>
      <point x="80" y="988" type="curve"/>
      <point x="80" y="714"/>
      <point x="308" y="594"/>
      <point x="612" y="550" type="curve"/>
      <point x="724" y="534"/>
      <point x="844" y="496"/>
      <point x="844" y="412" type="curve"/>
      <point x="844" y="330"/>
      <point x="732" y="274"/>
      <point x="612" y="274" type="curve"/>
      <point x="482" y="274"/>
      <point x="382" y="334"/>
      <point x="362" y="392" type="curve"/>
      <point x="80" y="288" type="line"/>
      <point x="142" y="120"/>
      <point x="314" y="10"/>
      <point x="512" y="-18" type="curve"/>
      <point x="512" y="-224" type="line"/>
      <point x="712" y="-224" type="line"/>
      <point x="712" y="-18" type="line"/>
      <point x="952" y="18"/>
      <point x="1144" y="182"/>
      <point x="1144" y="412" type="curve"/>
      <point x="1144" y="670"/>
      <point x="900" y="808"/>
      <point x="612" y="850" type="curve"/>
      <point x="486" y="868"/>
      <point x="380" y="880"/>
      <point x="380" y="988" type="curve"/>
      <point x="380" y="1066"/>
      <point x="496" y="1126"/>
    </contour>
  </outline>
</glyph>
<glyph name="asterisk" format="2">
  <advance width="734"/>
  <unicode hex="002A"/>
  <outline>
    <contour>
      <point x="264" y="826" type="line"/>
      <point x="352" y="946" type="line"/>
      <point x="438" y="826" type="line"/>
      <point x="600" y="944" type="line"/>
      <point x="512" y="1064" type="line"/>
      <point x="654" y="1108" type="line"/>
      <point x="592" y="1300" type="line"/>
      <point x="452" y="1254" type="line"/>
      <point x="452" y="1400" type="line"/>
      <point x="252" y="1400" type="line"/>
      <point x="252" y="1254" type="line"/>
      <point x="110" y="1300" type="line"/>
      <point x="50" y="1108" type="line"/>
      <point x="190" y="1064" type="line"/>
      <point x="102" y="944" type="line"/>
    </contour>
  </outline>
</glyph>
<glyph name="hyphen" format="2">
  <advance width="880"/>
  <unicode hex="002D"/>
  <outline>
    <contour>
      <point x="120" y="750" type="line"/>
      <point x="120" y="450" type="line"/>
      <point x="760" y="450" type="line"/>
      <point x="760" y="750" type="line"/>
    </contour>
  </outline>
</glyph>
<glyph name="one" format="2">
  <advance width="730"/>
  <unicode hex="0031"/>
  <outline>
    <contour>
      <point x="270" y="0" type="line"/>
      <point x="570" y="0" type="line"/>
      <point x="570" y="1400" type="line"/>
      <point x="160" y="1400" type="line"/>
      <point x="80" y="1100" type="line"/>
      <point x="270" y="1100" type="line"/>
    </contour>
  </outline>
</glyph>
<glyph name="two" format="2">
  <advance width="1172"/>
  <unicode hex="0032"/>
  <outline>
    <contour>
      <point x="80" y="0" type="line"/>
      <point x="1052" y="0" type="line"/>
      <point x="1052" y="300" type="line"/>
      <point x="632" y="300" type="line"/>
      <point x="900" y="560"/>
      <point x="1052" y="718"/>
      <point x="1052" y="940" type="curve" smooth="yes"/>
      <point x="1052" y="1210"/>
      <point x="834" y="1426"/>
      <point x="568" y="1426" type="curve" smooth="yes"/>
      <point x="306" y="1426"/>
      <point x="82" y="1216"/>
      <point x="82" y="940" type="curve"/>
      <point x="382" y="940" type="line"/>
      <point x="382" y="1042"/>
      <point x="466" y="1126"/>
      <point x="568" y="1126" type="curve" smooth="yes"/>
      <point x="670" y="1126"/>
      <point x="752" y="1042"/>
      <point x="752" y="940" type="curve" smooth="yes"/>
      <point x="752" y="772"/>
      <point x="266" y="384"/>
      <point x="80" y="268" type="curve"/>
    </contour>
  </outline>
</glyph>
<glyph name="eight" format="2">
  <advance width="1110"/>
  <unicode hex="0038"/>
  <outline>
    <contour>
      <point x="554" y="-26" type="curve" smooth="yes"/>
      <point x="818" y="-26"/>
      <point x="1030" y="176"/>
      <point x="1030" y="426" type="curve" smooth="yes"/>
      <point x="1030" y="542"/>
      <point x="984" y="652"/>
      <point x="900" y="736" type="curve"/>
      <point x="962" y="810"/>
      <point x="1000" y="902"/>
      <point x="1000" y="1002" type="curve" smooth="yes"/>
      <point x="1000" y="1236"/>
      <point x="800" y="1426"/>
      <point x="554" y="1426" type="curve" smooth="yes"/>
      <point x="308" y="1426"/>
      <point x="108" y="1236"/>
      <point x="108" y="1002" type="curve" smooth="yes"/>
      <point x="108" y="902"/>
      <point x="146" y="810"/>
      <point x="208" y="736" type="curve"/>
      <point x="126" y="652"/>
      <point x="80" y="542"/>
      <point x="80" y="426" type="curve" smooth="yes"/>
      <point x="80" y="174"/>
      <point x="290" y="-26"/>
    </contour>
    <contour>
      <point x="554" y="274" type="curve" smooth="yes"/>
      <point x="466" y="274"/>
      <point x="394" y="342"/>
      <point x="394" y="426" type="curve" smooth="yes"/>
      <point x="394" y="510"/>
      <point x="466" y="578"/>
      <point x="554" y="578" type="curve" smooth="yes"/>
      <point x="642" y="578"/>
      <point x="714" y="510"/>
      <point x="714" y="426" type="curve" smooth="yes"/>
      <point x="714" y="342"/>
      <point x="642" y="274"/>
    </contour>
    <contour>
      <point x="554" y="878" type="curve" smooth="yes"/>
      <point x="482" y="878"/>
      <point x="424" y="934"/>
      <point x="424" y="1002" type="curve" smooth="yes"/>
      <point x="424" y="1070"/>
      <point x="482" y="1126"/>
      <point x="554" y="1126" type="curve" smooth="yes"/>
      <point x="626" y="1126"/>
      <point x="684" y="1070"/>
      <point x="684" y="1002" type="curve" smooth="yes"/>
      <point x="684" y="934"/>
      <point x="626" y="878"/>
    </contour>
  </outline>
</glyph>
<glyph name="semicolon" format="2">
  <advance width="562"/>
  <unicode hex="003B"/>
  <outline>
    <contour>
      <point x="80" y="-112" type="line"/>
      <point x="280" y="-112" type="line"/>
      <point x="442" y="226" type="line"/>
      <point x="142" y="226" type="line"/>
    </contour>
    <contour>
      <point x="292" y="700" type="curve" smooth="yes"/>
      <point x="374" y="700"/>
      <point x="442" y="766"/>
      <point x="442" y="850" type="curve" smooth="yes"/>
      <point x="442" y="932"/>
      <point x="374" y="1000"/>
      <point x="292" y="1000" type="curve" smooth="yes"/>
      <point x="208" y="1000"/>
      <point x="142" y="932"/>
      <point x="142" y="850" type="curve" smooth="yes"/>
      <point x="142" y="766"/>
      <point x="208" y="700"/>
    </contour>
  </outline>
</glyph>
<glyph name="less" format="2">
  <advance width="1160"/>
  <unicode hex="003C"/>
  <outline>
    <contour>
      <point x="1080" y="64" type="line"/>
      <point x="1080" y="376" type="line"/>
      <point x="294" y="600" type="line"/>
      <point x="1080" y="824" type="line"/>
      <point x="1080" y="1136" type="line"/>
      <point x="80" y="850" type="line"/>
      <point x="80" y="348" type="line"/>
    </contour>
  </outline>
</glyph>
<glyph name="question" format="2">
  <advance width="1164"/>
  <unicode hex="003F"/>
  <outline>
    <contour>
      <point x="426" y="400" type="curve"/>
      <point x="726" y="400" type="line"/>
      <point x="726" y="451"/>
      <point x="752" y="495"/>
      <point x="796" y="518" type="curve" smooth="yes"/>
      <point x="950" y="600"/>
      <point x="1044" y="764"/>
      <point x="1044" y="946" type="curve" smooth="yes"/>
      <point x="1044" y="1210"/>
      <point x="828" y="1426"/>
      <point x="562" y="1426" type="curve" smooth="yes"/>
      <point x="296" y="1426"/>
      <point x="80" y="1210"/>
      <point x="80" y="946" type="curve"/>
      <point x="380" y="946" type="line"/>
      <point x="380" y="1046"/>
      <point x="462" y="1126"/>
      <point x="562" y="1126" type="curve" smooth="yes"/>
      <point x="662" y="1126"/>
      <point x="744" y="1046"/>
      <point x="744" y="946" type="curve" smooth="yes"/>
      <point x="744" y="874"/>
      <point x="710" y="812"/>
      <point x="654" y="782" type="curve" smooth="yes"/>
      <point x="512" y="705"/>
      <point x="426" y="561"/>
    </contour>
    <contour>
      <point x="592" y="-26" type="curve" smooth="yes"/>
      <point x="674" y="-26"/>
      <point x="740" y="40"/>
      <point x="740" y="126" type="curve" smooth="yes"/>
      <point x="740" y="208"/>
      <point x="674" y="274"/>
      <point x="592" y="274" type="curve" smooth="yes"/>
      <point x="508" y="274"/>
      <point x="442" y="208"/>
      <point x="442" y="126" type="curve" smooth="yes"/>
      <point x="442" y="40"/>
      <point x="508" y="-26"/>
    </contour>
  </outline>
</glyph>
<glyph name="D" format="2">
  <advance width="1344"/>
  <unicode hex="0044"/>
  <outline>
    <contour>
      <point x="120" y="0" type="line"/>
      <point x="584" y="0" type="line" smooth="yes"/>
      <point x="970" y="0"/>
      <point x="1284" y="314"/>
      <point x="1284" y="700" type="curve" smooth="yes"/>
      <point x="1284" y="1086"/>
      <point x="970" y="1400"/>
      <point x="584" y="1400" type="curve" smooth="yes"/>
      <point x="120" y="1400" type="line"/>
    </contour>
    <contour>
      <point x="420" y="300" type="line"/>
      <point x="420" y="1100" type="line"/>
      <point x="584" y="1100" type="line" smooth="yes"/>
      <point x="802" y="1100"/>
      <point x="984" y="920"/>
      <point x="984" y="700" type="curve" smooth="yes"/>
      <point x="984" y="478"/>
      <point x="800" y="300"/>
      <point x="584" y="300" type="curve" smooth="yes"/>
    </contour>
  </outline>
</glyph>
<glyph name="E" format="2">
  <advance width="1112"/>
  <unicode hex="0045"/>
  <outline>
    <contour>
      <point x="120" y="0" type="line"/>
      <point x="1012" y="0" type="line"/>
      <point x="1012" y="300" type="line"/>
      <point x="420" y="300" type="line"/>
      <point x="420" y="600" type="line"/>
      <point x="876" y="600" type="line"/>
      <point x="876" y="900" type="line"/>
      <point x="420" y="900" type="line"/>
      <point x="420" y="1100" type="line"/>
      <point x="1012" y="1100" type="line"/>
      <point x="1012" y="1400" type="line"/>
      <point x="120" y="1400" type="line"/>
    </contour>
  </outline>
</glyph>
<glyph name="F" format="2">
  <advance width="972"/>
  <unicode hex="0046"/>
  <outline>
    <contour>
      <point x="120" y="0" type="line"/>
      <point x="420" y="0" type="line"/>
      <point x="420" y="600" type="line"/>
      <point x="856" y="600" type="line"/>
      <point x="856" y="900" type="line"/>
      <point x="420" y="900" type="line"/>
      <point x="420" y="1100" type="line"/>
      <point x="952" y="1100" type="line"/>
      <point x="952" y="1400" type="line"/>
      <point x="120" y="1400" type="line"/>
    </contour>
  </outline>
</glyph>
<glyph name="G" format="2">
  <advance width="1497"/>
  <unicode hex="0047"/>
  <outline>
    <contour>
      <point x="748" y="-26" type="curve" smooth="yes"/>
      <point x="1144" y="-26"/>
      <point x="1456" y="322"/>
      <point x="1436" y="740" type="curve"/>
      <point x="894" y="740" type="line"/>
      <point x="894" y="480" type="line"/>
      <point x="1082" y="480" type="line"/>
      <point x="1000" y="338"/>
      <point x="874" y="274"/>
      <point x="752" y="274" type="curve" smooth="yes"/>
      <point x="536" y="274"/>
      <point x="360" y="460"/>
      <point x="360" y="696" type="curve" smooth="yes"/>
      <point x="360" y="952"/>
      <point x="550" y="1126"/>
      <point x="750" y="1126" type="curve" smooth="yes"/>
      <point x="848" y="1126"/>
      <point x="948" y="1084"/>
      <point x="1030" y="992" type="curve"/>
      <point x="1298" y="1136" type="line"/>
      <point x="1146" y="1338"/>
      <point x="948" y="1424"/>
      <point x="754" y="1424" type="curve" smooth="yes"/>
      <point x="398" y="1424"/>
      <point x="60" y="1130"/>
      <point x="60" y="702" type="curve" smooth="yes"/>
      <point x="60" y="304"/>
      <point x="356" y="-26"/>
    </contour>
  </outline>
</glyph>
<glyph name="K" format="2">
  <advance width="1230"/>
  <unicode hex="004B"/>
  <outline>
    <contour>
      <point x="1210" y="0" type="line"/>
      <point x="656" y="740" type="line"/>
      <point x="1210" y="1400" type="line"/>
      <point x="818" y="1400" type="line"/>
      <point x="420" y="924" type="line"/>
      <point x="420" y="1400" type="line"/>
      <point x="120" y="1400" type="line"/>
      <point x="120" y="0" type="line"/>
      <point x="420" y="0" type="line"/>
      <point x="420" y="458" type="line"/>
      <point x="460" y="506" type="line"/>
      <point x="818" y="0" type="line"/>
    </contour>
  </outline>
</glyph>
<glyph name="L" format="2">
  <advance width="1070"/>
  <unicode hex="004C"/>
  <outline>
    <contour>
      <point x="120" y="0" type="line"/>
      <point x="970" y="0" type="line"/>
      <point x="970" y="300" type="line"/>
      <point x="420" y="300" type="line"/>
      <point x="420" y="1400" type="line"/>
      <point x="120" y="1400" type="line"/>
    </contour>
  </outline>
</glyph>
<glyph name="T" format="2">
  <advance width="1260"/>
  <unicode hex="0054"/>
  <outline>
    <contour>
      <point x="1180" y="1400" type="line"/>
      <point x="80" y="1400" type="line"/>
      <point x="80" y="1100" type="line"/>
      <point x="480" y="1100" type="line"/>
      <point x="480" y="0" type="line"/>
      <point x="780" y="0" type="line"/>
      <point x="780" y="1100" type="line"/>
      <point x="1180" y="1100" type="line"/>
    </contour>
  </outline>
</glyph>
<glyph name="X" format="2">
  <advance width="1516"/>
  <unicode hex="0058"/>
  <outline>
    <contour>
      <point x="60" y="0" type="line"/>
      <point x="432" y="0" type="line"/>
      <point x="758" y="448" type="line"/>
      <point x="1084" y="0" type="line"/>
      <point x="1456" y="0" type="line"/>
      <point x="944" y="704" type="line"/>
      <point x="1452" y="1402" type="line"/>
      <point x="1082" y="1402" type="line"/>
      <point x="758" y="958" type="line"/>
      <point x="434" y="1402" type="line"/>
      <point x="64" y="1402" type="line"/>
      <point x="572" y="704" type="line"/>
    </contour>
  </outline>
</glyph>
<glyph name="Z" format="2">
  <advance width="1372"/>
  <unicode hex="005A"/>
  <outline>
    <contour>
      <point x="120" y="0" type="line"/>
      <point x="1252" y="0" type="line"/>
      <point x="1252" y="300" type="line"/>
      <point x="526" y="300" type="line"/>
      <point x="1252" y="1100" type="line"/>
      <point x="1252" y="1400" type="line"/>
      <point x="120" y="1400" type="line"/>
      <point x="120" y="1100" type="line"/>
      <point x="846" y="1100" type="line"/>
      <point x="120" y="300" type="line"/>
    </contour>
  </outline>
</glyph>
<glyph name="bracketright" format="2">
  <advance width="698"/>
  <unicode hex="005D"/>
  <outline>
    <contour>
      <point x="100" y="-112" type="line"/>
      <point x="578" y="-112" type="line"/>
      <point x="578" y="1400" type="line"/>
      <point x="100" y="1400" type="line"/>
      <point x="100" y="1100" type="line"/>
      <point x="278" y="1100" type="line"/>
      <point x="278" y="188" type="line"/>
      <point x="100" y="188" type="line"/>
    </contour>
  </outline>
</glyph>
<glyph name="l" format="2">
  <advance width="540"/>
  <unicode hex="006C"/>
  <outline>
    <contour>
      <point x="120" y="0" type="line"/>
      <point x="420" y="0" type="line"/>
      <point x="420" y="1500" type="line"/>
      <point x="120" y="1500" type="line"/>
    </contour>
  </outline>
</glyph>
<glyph name="n" format="2">
  <advance width="1216"/>
  <unicode hex="006E"/>
  <outline>
    <contour>
      <point x="1116" y="506" type="line"/>
      <point x="1114" y="794"/>
      <point x="940" y="1028"/>
      <point x="652" y="1028" type="curve"/>
      <point x="544" y="1028"/>
      <point x="462" y="980"/>
      <point x="400" y="908" type="curve"/>
      <point x="400" y="1000" type="line"/>
      <point x="100" y="1000" type="line"/>
      <point x="100" y="0" type="line"/>
      <point x="400" y="0" type="line"/>
      <point x="400" y="502" type="line"/>
      <point x="400" y="632"/>
      <point x="468" y="740"/>
      <point x="598" y="740" type="curve"/>
      <point x="730" y="740"/>
      <point x="816" y="632"/>
      <point x="816" y="502" type="curve"/>
      <point x="816" y="0" type="line"/>
      <point x="1116" y="0" type="line"/>
    </contour>
  </outline>
</glyph>
<glyph name="o" format="2">
  <advance width="1120"/>
  <unicode hex="006F"/>
  <outline>
    <contour>
      <point x="560" y="-26" type="curve" smooth="yes"/>
      <point x="836" y="-26"/>
      <point x="1060" y="210"/>
      <point x="1060" y="500" type="curve" smooth="yes"/>
      <point x="1060" y="792"/>
      <point x="836" y="1028"/>
      <point x="560" y="1028" type="curve" smooth="yes"/>
      <point x="284" y="1028"/>
      <point x="60" y="792"/>
      <point x="60" y="500" type="curve" smooth="yes"/>
      <point x="60" y="210"/>
      <point x="284" y="-26"/>
    </contour>
    <contour>
      <point x="560" y="274" type="curve" smooth="yes"/>
      <point x="452" y="274"/>
      <point x="360" y="372"/>
      <point x="360" y="500" type="curve" smooth="yes"/>
      <point x="360" y="622"/>
      <point x="448" y="728"/>
      <point x="560" y="728" type="curve" smooth="yes"/>
      <point x="668" y="728"/>
      <point x="760" y="626"/>
      <point x="760" y="500" type="curve" smooth="yes"/>
      <point x="760" y="378"/>
      <point x="674" y="274"/>
    </contour>
  </outline>
</glyph>
<glyph name="q" format="2">
  <advance width="1278"/>
  <unicode hex="0071"/>
  <outline>
    <contour>
      <point x="606" y="-28" type="curve"/>
      <point x="714" y="-28"/>
      <point x="796" y="22"/>
      <point x="858" y="92" type="curve"/>
      <point x="858" y="-500" type="line"/>
      <point x="1158" y="-500" type="line"/>
      <point x="1158" y="1000" type="line"/>
      <point x="858" y="1000" type="line"/>
      <point x="858" y="906" type="line"/>
      <point x="796" y="976"/>
      <point x="714" y="1026"/>
      <point x="606" y="1026" type="curve"/>
      <point x="316" y="1026"/>
      <point x="80" y="790"/>
      <point x="80" y="500" type="curve"/>
      <point x="80" y="208"/>
      <point x="316" y="-28"/>
    </contour>
    <contour>
      <point x="610" y="738" type="curve"/>
      <point x="734" y="738"/>
      <point x="832" y="630"/>
      <point x="832" y="500" type="curve"/>
      <point x="832" y="368"/>
      <point x="734" y="262"/>
      <point x="610" y="262" type="curve"/>
      <point x="486" y="262"/>
      <point x="388" y="368"/>
      <point x="388" y="500" type="curve"/>
      <point x="388" y="630"/>
      <point x="486" y="738"/>
    </contour>
  </outline>
</glyph>
<glyph name="r" format="2">
  <advance width="832"/>
  <unicode hex="0072"/>
  <outline>
    <contour>
      <point x="754" y="692" type="curve"/>
      <point x="802" y="1014" type="line"/>
      <point x="762" y="1026"/>
      <point x="718" y="1026"/>
      <point x="672" y="1026" type="curve" smooth="yes"/>
      <point x="564" y="1026"/>
      <point x="482" y="978"/>
      <point x="420" y="908" type="curve"/>
      <point x="420" y="998" type="line"/>
      <point x="120" y="998" type="line"/>
      <point x="120" y="0" type="line"/>
      <point x="422" y="0" type="line"/>
      <point x="422" y="500" type="line" smooth="yes"/>
      <point x="422" y="632"/>
      <point x="488" y="738"/>
      <point x="618" y="738" type="curve" smooth="yes"/>
      <point x="672" y="738"/>
      <point x="718" y="720"/>
    </contour>
  </outline>
</glyph>
<glyph name="t" format="2">
  <advance width="730"/>
  <unicode hex="0074"/>
  <outline>
    <contour>
      <point x="670" y="700" type="line"/>
      <point x="670" y="1000" type="line"/>
      <point x="500" y="1000" type="line"/>
      <point x="500" y="1314" type="line"/>
      <point x="200" y="1314" type="line"/>
      <point x="200" y="1000" type="line"/>
      <point x="70" y="1000" type="line"/>
      <point x="70" y="700" type="line"/>
      <point x="200" y="700" type="line"/>
      <point x="200" y="0" type="line"/>
      <point x="500" y="0" type="line"/>
      <point x="500" y="700" type="line"/>
    </contour>
  </outline>
</glyph>
<glyph name="v" format="2">
  <advance width="1236"/>
  <unicode hex="0076"/>
  <outline>
    <contour>
      <point x="812" y="0" type="line"/>
      <point x="1176" y="1000" type="line"/>
      <point x="856" y="1000" type="line"/>
      <point x="618" y="344" type="line"/>
      <point x="380" y="1000" type="line"/>
      <point x="60" y="1000" type="line"/>
      <point x="424" y="0" type="line"/>
    </contour>
  </outline>
</glyph>
<glyph name="w" format="2">
  <advance width="1748"/>
  <unicode hex="0077"/>
  <outline>
    <contour>
      <point x="688" y="0" type="line"/>
      <point x="874" y="562" type="line"/>
      <point x="1060" y="0" type="line"/>
      <point x="1354" y="0" type="line"/>
      <point x="1688" y="1000" type="line"/>
      <point x="1394" y="1000" type="line"/>
      <point x="1206" y="438" type="line"/>
      <point x="1020" y="1000" type="line"/>
      <point x="728" y="1000" type="line"/>
      <point x="542" y="438" type="line"/>
      <point x="354" y="1000" type="line"/>
      <point x="60" y="1000" type="line"/>
      <point x="394" y="0" type="line"/>
    </contour>
  </outline>
</glyph>
<glyph name="asciitilde" format="2">
  <advance width="1349"/>
  <unicode hex="007E"/>
  <outline>
    <contour>
      <point x="996" y="384" type="curve" smooth="yes"/>
      <point x="1188" y="384"/>
      <point x="1290" y="550"/>
      <point x="1266" y="738" type="curve"/>
      <point x="972" y="746" type="line"/>
      <point x="972" y="696"/>
      <point x="960" y="656"/>
      <point x="910" y="656" type="curve" smooth="yes"/>
      <point x="770" y="656"/>
      <point x="580" y="816"/>
      <point x="402" y="816" type="curve" smooth="yes"/>
      <point x="210" y="816"/>
      <point x="58" y="646"/>
      <point x="82" y="458" type="curve"/>
      <point x="376" y="450" type="line"/>
      <point x="376" y="492"/>
      <point x="384" y="536"/>
      <point x="434" y="536" type="curve" smooth="yes"/>
      <point x="574" y="536"/>
      <point x="818" y="384"/>
    </contour>
  </outline>
</glyph>
<glyph name="logicalnot" format="2">
  <advance width="1050"/>
  <unicode hex="00AC"/>
  <outline>
    <contour>
      <point x="670" y="275" type="line"/>
      <point x="970" y="275" type="line"/>
      <point x="970" y="925" type="line"/>
      <point x="80" y="925" type="line"/>
      <point x="80" y="625" type="line"/>
      <point x="670" y="625" type="line"/>
    </contour>
  </outline>
</glyph>
<glyph name="macron" format="2">
  <advance width="1200"/>
  <unicode hex="00AF"/>
  <outline>
    <contour>
      <point x="262" y="1442" type="line"/>
      <point x="262" y="1142" type="line"/>
      <point x="938" y="1142" type="line"/>
      <point x="938" y="1442" type="line"/>
    </contour>
  </outline>
</glyph>
<glyph name="plusminus" format="2">
  <advance width="1160"/>
  <unicode hex="00B1"/>
  <outline>
    <contour>
      <point x="430" y="400" type="line"/>
      <point x="730" y="400" type="line"/>
      <point x="730" y="750" type="line"/>
      <point x="1080" y="750" type="line"/>
      <point x="1080" y="1050" type="line"/>
      <point x="730" y="1050" type="line"/>
      <point x="730" y="1400" type="line"/>
      <point x="430" y="1400" type="line"/>
      <point x="430" y="1050" type="line"/>
      <point x="80" y="1050" type="line"/>
      <point x="80" y="750" type="line"/>
      <point x="430" y="750" type="line"/>
    </contour>
    <contour>
      <point x="80" y="0" type="line"/>
      <point x="1080" y="0" type="line"/>
      <point x="1080" y="300" type="line"/>
      <point x="80" y="300" type="line"/>
    </contour>
  </outline>
</glyph>
<glyph name="icircumflex" format="2">
  <advance width="542"/>
  <unicode hex="00EE"/>
  <outline>
    <contour>
      <point x="120" y="1000" type="line"/>
      <point x="120" y="0" type="line"/>
      <point x="420" y="0" type="line"/>
      <point x="420" y="1000" type="line"/>
    </contour>
    <component base="circumflexcomb" xOffset="-380"/>
  </outline>
</glyph>
<glyph name="thorn" format="2">
  <advance width="1278"/>
  <unicode hex="00FE"/>
  <outline>
    <contour>
      <point x="120" y="-500" type="line"/>
      <point x="420" y="-500" type="line"/>
      <point x="420" y="92" type="line"/>
      <point x="482" y="22"/>
      <point x="564" y="-28"/>
      <point x="672" y="-28" type="curve" smooth="yes"/>
      <point x="964" y="-28"/>
      <point x="1198" y="208"/>
      <point x="1198" y="500" type="curve" smooth="yes"/>
      <point x="1198" y="790"/>
      <point x="964" y="1026"/>
      <point x="672" y="1026" type="curve" smooth="yes"/>
      <point x="564" y="1026"/>
      <point x="482" y="976"/>
      <point x="420" y="906" type="curve"/>
      <point x="420" y="1400" type="line"/>
      <point x="120" y="1400" type="line"/>
    </contour>
    <contour>
      <point x="668" y="262" type="curve" smooth="yes"/>
      <point x="546" y="262"/>
      <point x="446" y="368"/>
      <point x="446" y="500" type="curve" smooth="yes"/>
      <point x="446" y="630"/>
      <point x="546" y="738"/>
      <point x="668" y="738" type="curve" smooth="yes"/>
      <point x="792" y="738"/>
      <point x="892" y="630"/>
      <point x="892" y="500" type="curve" smooth="yes"/>
      <point x="892" y="368"/>
      <point x="792" y="262"/>
    </contour>
  </outline>
</glyph>
<glyph name="oe" format="2">
  <advance width="1819"/>
  <unicode hex="0153"/>
  <outline>
    <contour>
      <point x="560" y="-26" type="curve" smooth="yes"/>
      <point x="696" y="-26"/>
      <point x="820" y="32"/>
      <point x="910" y="124" type="curve"/>
      <point x="1000" y="32"/>
      <point x="1124" y="-26"/>
      <point x="1260" y="-26" type="curve" smooth="yes"/>
      <point x="1460" y="-26"/>
      <point x="1632" y="98"/>
      <point x="1712" y="276" type="curve"/>
      <point x="1406" y="348" type="line"/>
      <point x="1370" y="302"/>
      <point x="1318" y="274"/>
      <point x="1260" y="274" type="curve" smooth="yes"/>
      <point x="1166" y="276"/>
      <point x="1112" y="330"/>
      <point x="1084" y="402" type="curve"/>
      <point x="1750" y="402" type="line"/>
      <point x="1810" y="722"/>
      <point x="1578" y="1028"/>
      <point x="1260" y="1028" type="curve" smooth="yes"/>
      <point x="1124" y="1028"/>
      <point x="1000" y="970"/>
      <point x="910" y="878" type="curve"/>
      <point x="820" y="970"/>
      <point x="696" y="1028"/>
      <point x="560" y="1028" type="curve" smooth="yes"/>
      <point x="284" y="1028"/>
      <point x="60" y="792"/>
      <point x="60" y="500" type="curve" smooth="yes"/>
      <point x="60" y="210"/>
      <point x="284" y="-26"/>
    </contour>
    <contour>
      <point x="560" y="274" type="curve" smooth="yes"/>
      <point x="452" y="274"/>
      <point x="360" y="372"/>
      <point x="360" y="500" type="curve" smooth="yes"/>
      <point x="360" y="622"/>
      <point x="448" y="728"/>
      <point x="560" y="728" type="curve" smooth="yes"/>
      <point x="668" y="728"/>
      <point x="760" y="626"/>
      <point x="760" y="500" type="curve" smooth="yes"/>
      <point x="760" y="378"/>
      <point x="674" y="274"/>
    </contour>
    <contour>
      <point x="1072" y="622" type="line"/>
      <point x="1100" y="708"/>
      <point x="1174" y="768"/>
      <point x="1260" y="768" type="curve" smooth="yes"/>
      <point x="1346" y="768"/>
      <point x="1418" y="708"/>
      <point x="1446" y="622" type="curve"/>
    </contour>
  </outline>
</glyph>
<glyph name="circumflexcomb" format="2">
  <unicode hex="0302"/>
  <outline>
    <contour>
      <point x="500" y="1400" type="line"/>
      <point x="400" y="1166" type="line"/>
      <point x="592" y="1166" type="line"/>
      <point x="652" y="1308" type="line"/>
      <point x="710" y="1166" type="line"/>
      <point x="902" y="1166" type="line"/>
      <point x="802" y="1400" type="line"/>
    </contour>
  </outline>
</glyph>
<glyph name="guilsinglleft" format="2">
  <advance width="820"/>
  <unicode hex="2039"/>
  <outline>
    <contour>
      <point x="420" y="261" type="line"/>
      <point x="720" y="261" type="line"/>
      <point x="422" y="601" type="line"/>
      <point x="720" y="939" type="line"/>
      <point x="420" y="939" type="line"/>
      <point x="120" y="601" type="line"/>
    </contour>
  </outline>
</glyph>
<glyph name="foursuperior" format="2">
  <advance width="696"/>
  <unicode hex="2074"/>
  <outline>
    <contour>
      <point x="331" y="818" type="line"/>
      <point x="499" y="818" type="line"/>
      <point x="499" y="904" type="line"/>
      <point x="552" y="904" type="line"/>
      <point x="552" y="1072" type="line"/>
      <point x="499" y="1072" type="line"/>
      <point x="499" y="1449" type="line"/>
      <point x="314" y="1449" type="line"/>
      <point x="96" y="1106" type="line"/>
      <point x="96" y="904" type="line"/>
      <point x="331" y="904" type="line"/>
    </contour>
    <contour>
      <point x="259" y="1072" type="line"/>
      <point x="348" y="1214" type="line"/>
      <point x="348" y="1072" type="line"/>
    </contour>
  </outline>
</glyph>
<glyph name="fivesuperior" format="2">
  <advance width="706"/>
  <unicode hex="2075"/>
  <outline>
    <contour>
      <point x="322" y="798" type="curve" smooth="yes"/>
      <point x="454" y="798"/>
      <point x="562" y="892"/>
      <point x="562" y="1024" type="curve" smooth="yes"/>
      <point x="562" y="1162"/>
      <point x="463" y="1262"/>
      <point x="302" y="1262" type="curve"/>
      <point x="302" y="1305" type="line"/>
      <point x="490" y="1305" type="line"/>
      <point x="490" y="1449" type="line"/>
      <point x="149" y="1449" type="line"/>
      <point x="115" y="1086" type="line"/>
      <point x="180" y="1094"/>
      <point x="288" y="1098"/>
      <point x="322" y="1094" type="curve" smooth="yes"/>
      <point x="362" y="1089"/>
      <point x="394" y="1062"/>
      <point x="394" y="1024" type="curve" smooth="yes"/>
      <point x="394" y="986"/>
      <point x="362" y="954"/>
      <point x="322" y="954" type="curve" smooth="yes"/>
      <point x="283" y="954"/>
      <point x="252" y="986"/>
      <point x="252" y="1024" type="curve"/>
      <point x="84" y="1024" type="line"/>
      <point x="84" y="892"/>
      <point x="192" y="798"/>
    </contour>
  </outline>
</glyph>
<glyph name="sixsuperior" format="2">
  <advance width="706"/>
  <unicode hex="2076"/>
  <outline>
    <contour>
      <point x="329" y="798" type="curve" smooth="yes"/>
      <point x="456" y="798"/>
      <point x="562" y="887"/>
      <point x="562" y="1017" type="curve" smooth="yes"/>
      <point x="562" y="1122"/>
      <point x="502" y="1206"/>
      <point x="384" y="1245" type="curve"/>
      <point x="502" y="1446" type="line"/>
      <point x="307" y="1446" type="line"/>
      <point x="113" y="1110"/>
      <point x="96" y="1091"/>
      <point x="96" y="1019" type="curve" smooth="yes"/>
      <point x="96" y="887"/>
      <point x="199" y="798"/>
    </contour>
    <contour>
      <point x="329" y="954" type="curve" smooth="yes"/>
      <point x="305" y="954"/>
      <point x="274" y="964"/>
      <point x="266" y="1002" type="curve" smooth="yes"/>
      <point x="257" y="1036"/>
      <point x="278" y="1082"/>
      <point x="329" y="1082" type="curve" smooth="yes"/>
      <point x="360" y="1082"/>
      <point x="384" y="1062"/>
      <point x="391" y="1034" type="curve" smooth="yes"/>
      <point x="401" y="993"/>
      <point x="370" y="954"/>
    </contour>
  </outline>
</glyph>
<glyph name="eightsuperior" format="2">
  <advance width="636"/>
  <unicode hex="2078"/>
  <outline>
    <contour>
      <point x="317" y="798" type="curve" smooth="yes"/>
      <point x="442" y="798"/>
      <point x="540" y="882"/>
      <point x="540" y="1005" type="curve" smooth="yes"/>
      <point x="540" y="1060"/>
      <point x="521" y="1110"/>
      <point x="490" y="1149" type="curve"/>
      <point x="514" y="1182"/>
      <point x="528" y="1226"/>
      <point x="528" y="1269" type="curve" smooth="yes"/>
      <point x="528" y="1386"/>
      <point x="432" y="1470"/>
      <point x="317" y="1470" type="curve" smooth="yes"/>
      <point x="202" y="1470"/>
      <point x="108" y="1386"/>
      <point x="108" y="1269" type="curve" smooth="yes"/>
      <point x="108" y="1226"/>
      <point x="122" y="1182"/>
      <point x="146" y="1149" type="curve"/>
      <point x="115" y="1110"/>
      <point x="96" y="1060"/>
      <point x="96" y="1005" type="curve" smooth="yes"/>
      <point x="96" y="882"/>
      <point x="194" y="798"/>
    </contour>
    <contour>
      <point x="317" y="952" type="curve" smooth="yes"/>
      <point x="288" y="952"/>
      <point x="264" y="976"/>
      <point x="264" y="1005" type="curve" smooth="yes"/>
      <point x="264" y="1036"/>
      <point x="288" y="1060"/>
      <point x="317" y="1060" type="curve" smooth="yes"/>
      <point x="348" y="1060"/>
      <point x="372" y="1036"/>
      <point x="372" y="1005" type="curve" smooth="yes"/>
      <point x="372" y="976"/>
      <point x="348" y="952"/>
    </contour>
    <contour>
      <point x="317" y="1228" type="curve" smooth="yes"/>
      <point x="295" y="1228"/>
      <point x="276" y="1247"/>
      <point x="276" y="1269" type="curve" smooth="yes"/>
      <point x="276" y="1293"/>
      <point x="295" y="1312"/>
      <point x="317" y="1312" type="curve" smooth="yes"/>
      <point x="341" y="1312"/>
      <point x="360" y="1293"/>
      <point x="360" y="1269" type="curve" smooth="yes"/>
      <point x="360" y="1247"/>
      <point x="341" y="1228"/>
    </contour>
  </outline>
</glyph>
<glyph name="ninesuperior" format="2">
  <advance width="658"/>
  <unicode hex="2079"/>
  <outline>
    <contour>
      <point x="130" y="818" type="line"/>
      <point x="324" y="818" type="line"/>
      <point x="506" y="1132" type="line"/>
      <point x="528" y="1170"/>
      <point x="538" y="1209"/>
      <point x="538" y="1247" type="curve" smooth="yes"/>
      <point x="538" y="1370"/>
      <point x="439" y="1468"/>
      <point x="305" y="1468" type="curve" smooth="yes"/>
      <point x="175" y="1468"/>
      <point x="72" y="1374"/>
      <point x="72" y="1247" type="curve" smooth="yes"/>
      <point x="72" y="1146"/>
      <point x="137" y="1048"/>
      <point x="247" y="1022" type="curve"/>
    </contour>
    <contour>
      <point x="305" y="1182" type="curve" smooth="yes"/>
      <point x="281" y="1182"/>
      <point x="240" y="1197"/>
      <point x="240" y="1245" type="curve" smooth="yes"/>
      <point x="240" y="1276"/>
      <point x="262" y="1312"/>
      <point x="305" y="1312" type="curve" smooth="yes"/>
      <point x="336" y="1312"/>
      <point x="370" y="1281"/>
      <point x="370" y="1250" type="curve" smooth="yes"/>
      <point x="370" y="1214"/>
      <point x="341" y="1182"/>
    </contour>
  </outline>
</glyph>
<glyph name="fiveinferior" format="2">
  <advance width="706"/>
  <unicode hex="2085"/>
  <outline>
    <contour>
      <point x="322" y="-31" type="curve"/>
      <point x="454" y="-31"/>
      <point x="562" y="74"/>
      <point x="562" y="206" type="curve"/>
      <point x="562" y="341"/>
      <point x="482" y="444"/>
      <point x="326" y="444" type="curve"/>
      <point x="302" y="444" type="line"/>
      <point x="302" y="485" type="line"/>
      <point x="490" y="485" type="line"/>
      <point x="490" y="631" type="line"/>
      <point x="149" y="631" type="line"/>
      <point x="113" y="276" type="line"/>
      <point x="322" y="276" type="line"/>
      <point x="362" y="276"/>
      <point x="394" y="245"/>
      <point x="394" y="206" type="curve"/>
      <point x="394" y="168"/>
      <point x="362" y="137"/>
      <point x="322" y="137" type="curve"/>
      <point x="283" y="137"/>
      <point x="252" y="168"/>
      <point x="252" y="206" type="curve"/>
      <point x="84" y="206" type="line"/>
      <point x="84" y="74"/>
      <point x="192" y="-31"/>
    </contour>
  </outline>
</glyph>
<glyph name="sixinferior" format="2">
  <advance width="682"/>
  <unicode hex="2086"/>
  <outline>
    <contour>
      <point x="329" y="-31" type="curve" smooth="yes"/>
      <point x="456" y="-31"/>
      <point x="562" y="70"/>
      <point x="562" y="199" type="curve" smooth="yes"/>
      <point x="562" y="305"/>
      <point x="502" y="389"/>
      <point x="384" y="427" type="curve"/>
      <point x="502" y="629" type="line"/>
      <point x="307" y="629" type="line"/>
      <point x="113" y="293"/>
      <point x="96" y="274"/>
      <point x="96" y="202" type="curve" smooth="yes"/>
      <point x="96" y="70"/>
      <point x="199" y="-31"/>
    </contour>
    <contour>
      <point x="329" y="137" type="curve" smooth="yes"/>
      <point x="305" y="137"/>
      <point x="274" y="146"/>
      <point x="266" y="185" type="curve" smooth="yes"/>
      <point x="259" y="218"/>
      <point x="278" y="264"/>
      <point x="329" y="264" type="curve" smooth="yes"/>
      <point x="360" y="264"/>
      <point x="384" y="245"/>
      <point x="391" y="216" type="curve" smooth="yes"/>
      <point x="401" y="175"/>
      <point x="370" y="137"/>
    </contour>
  </outline>
</glyph>
<glyph name="seveninferior" format="2">
  <advance width="686"/>
  <unicode hex="2087"/>
  <outline>
    <contour>
      <point x="153" y="0" type="line"/>
      <point x="345" y="0" type="line"/>
      <point x="614" y="468" type="line"/>
      <point x="614" y="631" type="line"/>
      <point x="120" y="631" type="line"/>
      <point x="120" y="463" type="line"/>
      <point x="420" y="463" type="line"/>
    </contour>
  </outline>
</glyph>
<glyph name="upArrow" format="2">
  <advance width="1264"/>
  <unicode hex="2191"/>
  <outline>
    <contour>
      <point x="482" y="116" type="line"/>
      <point x="782" y="116" type="line"/>
      <point x="782" y="808" type="line"/>
      <point x="972" y="620" type="line"/>
      <point x="1184" y="832" type="line"/>
      <point x="632" y="1384" type="line"/>
      <point x="80" y="832" type="line"/>
      <point x="292" y="620" type="line"/>
      <point x="482" y="808" type="line"/>
    </contour>
  </outline>
</glyph>
<glyph name="leftRightArrow" format="2">
  <advance width="1928"/>
  <unicode hex="2194"/>
  <outline>
    <contour>
      <point x="632" y="198" type="line"/>
      <point x="844" y="410" type="line"/>
      <point x="654" y="600" type="line"/>
      <point x="1272" y="600" type="line"/>
      <point x="1084" y="410" type="line"/>
      <point x="1296" y="198" type="line"/>
      <point x="1848" y="750" type="line"/>
      <point x="1296" y="1302" type="line"/>
      <point x="1084" y="1090" type="line"/>
      <point x="1272" y="900" type="line"/>
      <point x="654" y="900" type="line"/>
      <point x="844" y="1090" type="line"/>
      <point x="632" y="1302" type="line"/>
      <point x="80" y="750" type="line"/>
    </contour>
  </outline>
</glyph>
<glyph name="emptyset" format="2">
  <advance width="1160"/>
  <unicode hex="2205"/>
  <outline>
    <contour>
      <point x="380" y="-86" type="line"/>
      <point x="428" y="-2" type="line"/>
      <point x="476" y="-18"/>
      <point x="526" y="-26"/>
      <point x="580" y="-26" type="curve" smooth="yes"/>
      <point x="856" y="-26"/>
      <point x="1080" y="210"/>
      <point x="1080" y="500" type="curve" smooth="yes"/>
      <point x="1080" y="646"/>
      <point x="1024" y="778"/>
      <point x="934" y="874" type="curve"/>
      <point x="988" y="968" type="line"/>
      <point x="780" y="1088" type="line"/>
      <point x="730" y="1004" type="line"/>
      <point x="684" y="1020"/>
      <point x="632" y="1028"/>
      <point x="580" y="1028" type="curve" smooth="yes"/>
      <point x="304" y="1028"/>
      <point x="80" y="792"/>
      <point x="80" y="500" type="curve" smooth="yes"/>
      <point x="80" y="356"/>
      <point x="136" y="224"/>
      <point x="226" y="128" type="curve"/>
      <point x="172" y="34" type="line"/>
    </contour>
    <contour>
      <point x="374" y="380" type="line"/>
      <point x="362" y="412"/>
      <point x="356" y="444"/>
      <point x="356" y="482" type="curve" smooth="yes"/>
      <point x="356" y="632"/>
      <point x="462" y="762"/>
      <point x="596" y="766" type="curve"/>
    </contour>
    <contour>
      <point x="564" y="236" type="curve"/>
      <point x="786" y="622" type="line"/>
      <point x="796" y="590"/>
      <point x="804" y="556"/>
      <point x="804" y="518" type="curve" smooth="yes"/>
      <point x="804" y="368"/>
      <point x="702" y="240"/>
    </contour>
  </outline>
</glyph>
<glyph name="integral" format="2">
  <advance width="1179"/>
  <unicode hex="222B"/>
  <outline>
    <contour>
      <point x="402" y="-26" type="curve" smooth="yes"/>
      <point x="526" y="-26"/>
      <point x="648" y="38"/>
      <point x="688" y="202" type="curve"/>
      <point x="780" y="1116" type="line"/>
      <point x="786" y="1160"/>
      <point x="812" y="1182"/>
      <point x="842" y="1186" type="curve"/>
      <point x="884" y="1194"/>
      <point x="922" y="1176"/>
      <point x="932" y="1108" type="curve"/>
      <point x="1098" y="1092" type="line"/>
      <point x="1114" y="1264"/>
      <point x="972" y="1426"/>
      <point x="792" y="1426" type="curve" smooth="yes"/>
      <point x="654" y="1426"/>
      <point x="508" y="1324"/>
      <point x="490" y="1196" type="curve"/>
      <point x="396" y="276" type="line"/>
      <point x="390" y="234"/>
      <point x="358" y="210"/>
      <point x="314" y="210" type="curve" smooth="yes"/>
      <point x="270" y="210"/>
      <point x="272" y="246"/>
      <point x="264" y="292" type="curve"/>
      <point x="80" y="306" type="line"/>
      <point x="70" y="112"/>
      <point x="212" y="-26"/>
    </contour>
  </outline>
</glyph>
<glyph name="notequal" format="2">
  <advance width="1160"/>
  <unicode hex="2260"/>
  <outline>
    <contour>
      <point x="906" y="1182" type="line"/>
      <point x="594" y="1182" type="line"/>
      <point x="532" y="972" type="line"/>
      <point x="80" y="972" type="line"/>
      <point x="80" y="672" type="line"/>
      <point x="444" y="672" type="line"/>
      <point x="402" y="528" type="line"/>
      <point x="80" y="528" type="line"/>
      <point x="80" y="228" type="line"/>
      <point x="314" y="228" type="line"/>
      <point x="252" y="18" type="line"/>
      <point x="564" y="18" type="line"/>
      <point x="626" y="228" type="line"/>
      <point x="1080" y="228" type="line"/>
      <point x="1080" y="528" type="line"/>
      <point x="714" y="528" type="line"/>
      <point x="756" y="672" type="line"/>
      <point x="1080" y="672" type="line"/>
      <point x="1080" y="972" type="line"/>
      <point x="844" y="972" type="line"/>
    </contour>
  </outline>
</glyph>
